<?xml version="1.0" encoding="UTF-8"?>
<svg version="1.1" xmlns="http://www.w3.org/2000/svg" width="48" height="48">
<path d="M0 0 C2.44325637 1.14998872 4.83790749 2.36978488 7.23291016 3.61694336 C8.06435547 4.04168945 8.89580078 4.46643555 9.75244141 4.90405273 C11.79143614 5.94698682 13.82629505 6.99722628 15.85791016 8.05444336 C15.85791016 9.70444336 15.85791016 11.35444336 15.85791016 13.05444336 C15.19791016 13.05444336 14.53791016 13.05444336 13.85791016 13.05444336 C13.85791016 19.98444336 13.85791016 26.91444336 13.85791016 34.05444336 C0.65791016 34.05444336 -12.54208984 34.05444336 -26.14208984 34.05444336 C-26.14208984 27.12444336 -26.14208984 20.19444336 -26.14208984 13.05444336 C-26.80208984 13.05444336 -27.46208984 13.05444336 -28.14208984 13.05444336 C-28.14208984 11.40444336 -28.14208984 9.75444336 -28.14208984 8.05444336 C-24.94721889 6.34050488 -21.73443326 4.66326153 -18.51708984 2.99194336 C-17.16164063 2.26394531 -17.16164063 2.26394531 -15.77880859 1.52124023 C-9.71744406 -1.59792911 -6.46013986 -2.85162089 0 0 Z " fill="#E7E9F5" transform="translate(30.14208984375,7.945556640625)"/>
<path d="M0 0 C9.9 0 19.8 0 30 0 C30 5.94 30 11.88 30 18 C20.1 18 10.2 18 0 18 C0 12.06 0 6.12 0 0 Z " fill="#263238" transform="translate(9,24)"/>
<path d="M0 0 C2.44325637 1.14998872 4.83790749 2.36978488 7.23291016 3.61694336 C8.06435547 4.04168945 8.89580078 4.46643555 9.75244141 4.90405273 C11.79143614 5.94698682 13.82629505 6.99722628 15.85791016 8.05444336 C15.85791016 9.70444336 15.85791016 11.35444336 15.85791016 13.05444336 C12.79269713 11.93112943 9.94163261 10.59719846 7.08056641 9.03881836 C6.401875 8.67530273 5.72318359 8.31178711 5.02392578 7.93725586 C3.61802008 7.1801293 2.21948843 6.4091523 0.82861328 5.62475586 C-2.5438441 3.84742287 -4.32181925 2.91649358 -8.16162109 3.56225586 C-11.77736575 5.37249761 -15.3578856 7.21445358 -18.89208984 9.17944336 C-25.87781649 13.05444336 -25.87781649 13.05444336 -28.14208984 13.05444336 C-28.14208984 11.40444336 -28.14208984 9.75444336 -28.14208984 8.05444336 C-24.94721889 6.34050488 -21.73443326 4.66326153 -18.51708984 2.99194336 C-17.16164063 2.26394531 -17.16164063 2.26394531 -15.77880859 1.52124023 C-9.71744406 -1.59792911 -6.46013986 -2.85162089 0 0 Z " fill="#FDFDFE" transform="translate(30.14208984375,7.945556640625)"/>
<path d="M0 0 C1.31291016 -0.00845947 1.31291016 -0.00845947 2.65234375 -0.01708984 C3.61398438 -0.02353516 4.575625 -0.02998047 5.56640625 -0.03662109 C6.56414063 -0.01728516 7.561875 0.00205078 8.58984375 0.02197266 C9.58757813 0.00263672 10.5853125 -0.01669922 11.61328125 -0.03662109 C12.57492188 -0.03017578 13.5365625 -0.02373047 14.52734375 -0.01708984 C15.40261719 -0.0114502 16.27789063 -0.00581055 17.1796875 0 C19.58984375 0.64697266 19.58984375 0.64697266 23.58984375 5.64697266 C13.68984375 5.64697266 3.78984375 5.64697266 -6.41015625 5.64697266 C-2.41015625 0.64697266 -2.41015625 0.64697266 0 0 Z " fill="#435862" transform="translate(15.41015625,36.35302734375)"/>
<path d="M0 0 C9.9 0 19.8 0 30 0 C30 1.32 30 2.64 30 4 C20.1 4 10.2 4 0 4 C0 2.68 0 1.36 0 0 Z " fill="#708792" transform="translate(9,24)"/>
<path d="M0 0 C0.61544678 0.30736084 1.23089355 0.61472168 1.86499023 0.93139648 C3.89135119 1.95754903 5.88355311 3.03279173 7.875 4.125 C8.56335937 4.49753906 9.25171875 4.87007812 9.9609375 5.25390625 C11.64294798 6.16499526 13.32180436 7.08190315 15 8 C14.67 8.66 14.34 9.32 14 10 C12.91460937 9.4225 11.82921875 8.845 10.7109375 8.25 C9.26595691 7.49936073 7.82062569 6.74939615 6.375 6 C5.30572266 5.42765625 5.30572266 5.42765625 4.21484375 4.84375 C-0.00685854 2.67480203 -3.16318042 1.20217409 -8 2 C-11.06121402 3.13986786 -13.95716487 4.53613695 -16.875 6 C-17.65875 6.3815625 -18.4425 6.763125 -19.25 7.15625 C-21.17180089 8.09371385 -23.08663032 9.04544586 -25 10 C-23.43310493 5.2993148 -19.57391369 4.32654947 -15.3125 2.1875 C-14.50876953 1.75501953 -13.70503906 1.32253906 -12.87695312 0.87695312 C-7.88446437 -1.6499075 -5.2351466 -2.7335195 0 0 Z " fill="#C8CDEA" transform="translate(29,12)"/>
<path d="M0 0 C1.65 0 3.3 0 5 0 C5 1.65 5 3.3 5 5 C3.35 5 1.7 5 0 5 C0 3.35 0 1.7 0 0 Z " fill="#C5CAE9" transform="translate(39,37)"/>
<path d="M0 0 C1.65 0 3.3 0 5 0 C5 1.65 5 3.3 5 5 C3.35 5 1.7 5 0 5 C0 3.35 0 1.7 0 0 Z " fill="#C5CAE9" transform="translate(4,37)"/>
<path d="M0 0 C1.98 0 3.96 0 6 0 C6 1.32 6 2.64 6 4 C4.02 4 2.04 4 0 4 C0 2.68 0 1.36 0 0 Z " fill="#01579B" transform="translate(21,17)"/>
</svg>
