<svg xmlns="http://www.w3.org/2000/svg" xmlns:xlink="http://www.w3.org/1999/xlink" width="500" zoomAndPan="magnify" viewBox="0 0 375 374.999991" height="500" preserveAspectRatio="xMidYMid meet" version="1.0"><defs><clipPath id="db4251ea10"><path d="M 112.5 138 L 262.5 138 L 262.5 261 L 112.5 261 Z M 112.5 138 " clip-rule="nonzero"/></clipPath><clipPath id="c01c3e248d"><path d="M 170 136.894531 L 225 136.894531 L 225 230 L 170 230 Z M 170 136.894531 " clip-rule="nonzero"/></clipPath><clipPath id="9d19cab107"><path d="M 187 136.894531 L 225 136.894531 L 225 200 L 187 200 Z M 187 136.894531 " clip-rule="nonzero"/></clipPath></defs><g clip-path="url(#db4251ea10)"><path fill="#0d62ad" d="M 256.457031 176.035156 C 256.457031 214.117188 225.585938 244.992188 187.5 244.992188 C 149.414062 244.992188 118.542969 214.117188 118.542969 176.035156 C 118.542969 161.980469 122.75 148.910156 129.96875 138.007812 C 119.09375 151.015625 112.546875 167.769531 112.546875 186.050781 C 112.546875 227.449219 146.105469 261.007812 187.5 261.007812 C 228.894531 261.007812 262.453125 227.449219 262.453125 186.050781 C 262.453125 167.769531 255.90625 151.015625 245.03125 138.007812 C 252.25 148.910156 256.457031 161.980469 256.457031 176.035156 Z M 256.457031 176.035156 " fill-opacity="1" fill-rule="nonzero"/></g><path fill="#1cb3e4" d="M 129.878906 185.011719 C 129.878906 153.191406 155.675781 127.390625 187.5 127.390625 C 219.324219 127.390625 245.121094 153.191406 245.121094 185.011719 C 245.121094 196.753906 241.605469 207.679688 235.574219 216.785156 C 244.660156 205.914062 250.132812 191.917969 250.132812 176.640625 C 250.132812 142.050781 222.09375 114.007812 187.5 114.007812 C 152.910156 114.007812 124.867188 142.050781 124.867188 176.640625 C 124.867188 191.917969 130.339844 205.917969 139.425781 216.789062 C 133.394531 207.679688 129.878906 196.753906 129.878906 185.011719 Z M 129.878906 185.011719 " fill-opacity="1" fill-rule="nonzero"/><path fill="#0d62ad" d="M 153.3125 182.476562 C 149.15625 189.804688 147.859375 197.71875 150.003906 206.335938 C 155.042969 226.605469 177.605469 244.894531 197.953125 234.8125 C 209.179688 229.25 213.621094 215.625 205.90625 205.074219 C 201.675781 199.289062 194.910156 194.421875 187.507812 189.789062 C 177.984375 184 164.117188 174.761719 165.550781 162.023438 C 160.046875 167.992188 156.304688 174.867188 160.660156 182.523438 C 164.003906 188.398438 170.28125 193.78125 178.21875 198.890625 C 181.621094 201.398438 184.921875 204 187.324219 207.46875 C 194.082031 217.242188 186.328125 223.855469 176.402344 222.730469 C 166.566406 221.617188 161.769531 216.820312 159.625 210.09375 C 163.449219 213.183594 167.40625 216.042969 172.074219 217.261719 C 179.761719 219.273438 181.804688 214.515625 179.597656 209.273438 C 178.429688 206.503906 176.273438 203.886719 173.664062 201.792969 C 165.558594 195.292969 160.558594 191.023438 153.3125 182.476562 " fill-opacity="1" fill-rule="evenodd"/><path fill="#034e8f" d="M 202.378906 231.929688 C 210.210938 225.375 212.511719 214.097656 205.910156 205.074219 C 201.679688 199.289062 194.914062 194.421875 187.511719 189.789062 C 177.988281 184 164.121094 174.761719 165.554688 162.023438 C 162.296875 171.382812 163.867188 177.730469 170.820312 184.40625 C 179.40625 192.648438 190.867188 198.65625 198.605469 207.542969 C 204.160156 213.933594 207.085938 221.605469 202.378906 231.929688 " fill-opacity="1" fill-rule="evenodd"/><path fill="#034e8f" d="M 180.417969 213.421875 C 180.5 212.167969 180.214844 210.738281 179.59375 209.265625 C 178.425781 206.496094 176.269531 203.878906 173.660156 201.789062 C 165.554688 195.289062 160.554688 191.019531 153.308594 182.476562 C 160.535156 200.414062 174.757812 200.652344 180.417969 213.421875 " fill-opacity="1" fill-rule="evenodd"/><g clip-path="url(#c01c3e248d)"><path fill="#0098da" d="M 187.640625 136.894531 C 178.386719 143.988281 166.910156 153.734375 172.320312 165.222656 C 176.796875 174.730469 191.085938 183.578125 199.21875 190.152344 C 213.839844 201.96875 224.988281 211.425781 210.261719 229.945312 C 222.375 218.480469 227.316406 205.253906 215.660156 191.476562 C 212.4375 187.667969 208.597656 184.113281 204.199219 180.785156 C 195.894531 174.503906 183.886719 167.53125 183.8125 155.78125 C 190.921875 166.710938 197.195312 169.535156 206.832031 176.53125 C 215.78125 183.023438 221.679688 190.539062 224.683594 199.011719 C 223.894531 189.304688 220.183594 180.566406 214.261719 172.570312 C 209.925781 166.71875 204.433594 161.292969 199.261719 155.6875 C 193.445312 149.378906 190.261719 145.433594 187.640625 136.894531 " fill-opacity="1" fill-rule="evenodd"/></g><g clip-path="url(#9d19cab107)"><path fill="#007fb5" d="M 223.089844 195.167969 C 223.6875 196.429688 224.21875 197.707031 224.683594 199.011719 C 223.894531 189.304688 220.183594 180.566406 214.261719 172.570312 C 209.925781 166.71875 204.433594 161.292969 199.261719 155.6875 C 193.441406 149.382812 190.261719 145.4375 187.640625 136.898438 C 187.683594 143.035156 189.050781 148.417969 191.90625 153.816406 C 195.347656 160.324219 199.773438 163.597656 205.628906 169.066406 C 208.445312 171.699219 211.082031 174.507812 213.507812 177.515625 C 217.4375 182.386719 221.9375 189.066406 223.089844 195.167969 Z M 223.089844 195.167969 " fill-opacity="1" fill-rule="evenodd"/></g><path fill="#007fb5" d="M 172.917969 151.933594 C 170.734375 156.023438 170.082031 160.472656 172.316406 165.222656 C 176.792969 174.730469 191.085938 183.578125 199.21875 190.152344 C 203.394531 193.527344 207.289062 196.714844 210.375 199.96875 C 201.414062 187.570312 186.679688 180.5 178.375 168.738281 C 174.839844 163.734375 172.703125 158.140625 172.917969 151.933594 " fill-opacity="1" fill-rule="evenodd"/></svg>