<svg xmlns="http://www.w3.org/2000/svg" xmlns:xlink="http://www.w3.org/1999/xlink" width="500" zoomAndPan="magnify" viewBox="0 0 375 374.999991" height="500" preserveAspectRatio="xMidYMid meet" version="1.0"><defs><g/><clipPath id="e1efdac16c"><path d="M 112.5 104 L 262.5 104 L 262.5 227.183594 L 112.5 227.183594 Z M 112.5 104 " clip-rule="nonzero"/></clipPath><clipPath id="a5f0a49e26"><path d="M 124 80.183594 L 251 80.183594 L 251 183 L 124 183 Z M 124 80.183594 " clip-rule="nonzero"/></clipPath><clipPath id="5fc954de89"><path d="M 170 103.078125 L 225 103.078125 L 225 197 L 170 197 Z M 170 103.078125 " clip-rule="nonzero"/></clipPath><clipPath id="cc82978d56"><path d="M 187 103.078125 L 225 103.078125 L 225 166 L 187 166 Z M 187 103.078125 " clip-rule="nonzero"/></clipPath></defs><rect x="-37.5" width="450" fill="#ffffff" y="-37.499999" height="449.999989" fill-opacity="1"/><rect x="-37.5" width="450" fill="#fefffe" y="-37.499999" height="449.999989" fill-opacity="1"/><g clip-path="url(#e1efdac16c)"><path fill="#0d62ad" d="M 256.457031 142.21875 C 256.457031 180.300781 225.585938 211.171875 187.5 211.171875 C 149.414062 211.171875 118.542969 180.300781 118.542969 142.21875 C 118.542969 128.164062 122.75 115.09375 129.96875 104.191406 C 119.09375 117.199219 112.546875 133.953125 112.546875 152.234375 C 112.546875 193.632812 146.105469 227.1875 187.5 227.1875 C 228.894531 227.1875 262.453125 193.632812 262.453125 152.234375 C 262.453125 133.953125 255.90625 117.199219 245.03125 104.191406 C 252.25 115.09375 256.457031 128.164062 256.457031 142.21875 Z M 256.457031 142.21875 " fill-opacity="1" fill-rule="nonzero"/></g><g clip-path="url(#a5f0a49e26)"><path fill="#1cb3e4" d="M 129.878906 151.195312 C 129.878906 119.371094 155.675781 93.574219 187.5 93.574219 C 219.324219 93.574219 245.121094 119.371094 245.121094 151.195312 C 245.121094 162.9375 241.605469 173.859375 235.574219 182.96875 C 244.660156 172.097656 250.132812 158.101562 250.132812 142.824219 C 250.132812 108.230469 222.09375 80.191406 187.5 80.191406 C 152.910156 80.191406 124.867188 108.234375 124.867188 142.824219 C 124.867188 158.101562 130.339844 172.097656 139.425781 182.96875 C 133.394531 173.859375 129.878906 162.9375 129.878906 151.195312 Z M 129.878906 151.195312 " fill-opacity="1" fill-rule="nonzero"/></g><path fill="#0d62ad" d="M 153.3125 148.65625 C 149.15625 155.988281 147.859375 163.902344 150.003906 172.519531 C 155.042969 192.789062 177.605469 211.078125 197.953125 200.996094 C 209.179688 195.433594 213.621094 181.808594 205.90625 171.257812 C 201.675781 165.472656 194.910156 160.605469 187.507812 155.972656 C 177.984375 150.183594 164.117188 140.941406 165.550781 128.203125 C 160.046875 134.175781 156.304688 141.050781 160.660156 148.707031 C 164.003906 154.582031 170.28125 159.964844 178.21875 165.074219 C 181.621094 167.578125 184.921875 170.183594 187.324219 173.652344 C 194.082031 183.421875 186.328125 190.035156 176.402344 188.914062 C 166.566406 187.796875 161.769531 183.003906 159.625 176.277344 C 163.449219 179.367188 167.40625 182.226562 172.074219 183.445312 C 179.761719 185.457031 181.804688 180.699219 179.597656 175.453125 C 178.429688 172.6875 176.273438 170.070312 173.664062 167.976562 C 165.558594 161.476562 160.558594 157.203125 153.3125 148.65625 " fill-opacity="1" fill-rule="evenodd"/><path fill="#034e8f" d="M 202.378906 198.113281 C 210.210938 191.558594 212.511719 180.28125 205.910156 171.257812 C 201.679688 165.472656 194.914062 160.605469 187.511719 155.972656 C 177.988281 150.183594 164.121094 140.941406 165.554688 128.203125 C 162.296875 137.5625 163.867188 143.914062 170.820312 150.589844 C 179.40625 158.828125 190.867188 164.839844 198.605469 173.726562 C 204.160156 180.113281 207.085938 187.789062 202.378906 198.113281 " fill-opacity="1" fill-rule="evenodd"/><path fill="#034e8f" d="M 180.417969 179.605469 C 180.5 178.347656 180.214844 176.917969 179.59375 175.449219 C 178.425781 172.679688 176.269531 170.0625 173.660156 167.972656 C 165.554688 161.472656 160.554688 157.203125 153.308594 148.65625 C 160.535156 166.597656 174.757812 166.835938 180.417969 179.605469 " fill-opacity="1" fill-rule="evenodd"/><g clip-path="url(#5fc954de89)"><path fill="#0098da" d="M 187.640625 103.078125 C 178.386719 110.167969 166.910156 119.917969 172.320312 131.40625 C 176.796875 140.914062 191.085938 149.757812 199.21875 156.335938 C 213.839844 168.152344 224.988281 177.605469 210.261719 196.128906 C 222.375 184.664062 227.316406 171.4375 215.660156 157.660156 C 212.4375 153.851562 208.597656 150.296875 204.199219 146.96875 C 195.894531 140.6875 183.886719 133.714844 183.8125 121.964844 C 190.921875 132.894531 197.195312 135.71875 206.832031 142.710938 C 215.78125 149.207031 221.679688 156.71875 224.683594 165.191406 C 223.894531 155.488281 220.183594 146.75 214.261719 138.753906 C 209.925781 132.898438 204.433594 127.476562 199.261719 121.871094 C 193.445312 115.5625 190.261719 111.613281 187.640625 103.078125 " fill-opacity="1" fill-rule="evenodd"/></g><g clip-path="url(#cc82978d56)"><path fill="#007fb5" d="M 223.089844 161.351562 C 223.6875 162.609375 224.21875 163.890625 224.683594 165.191406 C 223.894531 155.488281 220.183594 146.75 214.261719 138.753906 C 209.925781 132.898438 204.433594 127.476562 199.261719 121.871094 C 193.441406 115.566406 190.261719 111.617188 187.640625 103.082031 C 187.683594 109.21875 189.050781 114.597656 191.90625 120 C 195.347656 126.503906 199.773438 129.777344 205.628906 135.25 C 208.445312 137.882812 211.082031 140.6875 213.507812 143.699219 C 217.4375 148.566406 221.9375 155.25 223.089844 161.351562 Z M 223.089844 161.351562 " fill-opacity="1" fill-rule="evenodd"/></g><path fill="#007fb5" d="M 172.917969 118.117188 C 170.734375 122.203125 170.082031 126.65625 172.316406 131.40625 C 176.792969 140.914062 191.085938 149.757812 199.21875 156.335938 C 203.394531 159.710938 207.289062 162.894531 210.375 166.152344 C 201.414062 153.75 186.679688 146.683594 178.375 134.921875 C 174.839844 129.917969 172.703125 124.320312 172.917969 118.117188 " fill-opacity="1" fill-rule="evenodd"/><g fill="#0098da" fill-opacity="1"><g transform="translate(118.553903, 289.325928)"><g><path d="M 4.921875 0 L 0.375 -14 L 2.21875 -14 L 4.15625 -7.953125 L 5.796875 -2.8125 L 9.9375 -14 L 11.59375 -14 L 15.734375 -2.796875 L 19.34375 -14 L 21.1875 -14 L 16.625 0 L 14.984375 0 L 13.078125 -5.09375 L 10.765625 -11.34375 L 6.5625 0 Z M 4.921875 0 "/></g></g></g><g fill="#0098da" fill-opacity="1"><g transform="translate(139.205404, 289.325928)"><g><path d="M 0.34375 0 L 6.09375 -14 L 7.734375 -14 L 13.5 0 L 11.640625 0 L 10.3125 -3.1875 L 3.5 -3.1875 L 2.21875 0 Z M 4.1875 -4.8125 L 9.65625 -4.8125 L 6.921875 -11.546875 Z M 4.1875 -4.8125 "/></g></g></g><g fill="#0098da" fill-opacity="1"><g transform="translate(152.139947, 289.325928)"><g><path d="M 5.421875 0 L 5.421875 -12.3125 L 0.6875 -12.3125 L 0.6875 -14 L 11.90625 -14 L 11.90625 -12.3125 L 7.1875 -12.3125 L 7.1875 0 Z M 5.421875 0 "/></g></g></g><g fill="#0098da" fill-opacity="1"><g transform="translate(163.834981, 289.325928)"><g><path d="M 2.046875 0 L 2.046875 -14 L 10.546875 -14 L 10.546875 -12.359375 L 3.796875 -12.359375 L 3.796875 -7.9375 L 10.046875 -7.9375 L 10.046875 -6.3125 L 3.796875 -6.3125 L 3.796875 -1.640625 L 10.765625 -1.640625 L 10.765625 0 Z M 2.046875 0 "/></g></g></g><g fill="#0098da" fill-opacity="1"><g transform="translate(174.990221, 289.325928)"><g><path d="M 2.046875 0 L 2.046875 -14 L 7.375 -14 C 8.351562 -14 9.203125 -13.816406 9.921875 -13.453125 C 10.640625 -13.085938 11.195312 -12.570312 11.59375 -11.90625 C 12 -11.238281 12.203125 -10.4375 12.203125 -9.5 C 12.203125 -8.363281 11.90625 -7.425781 11.3125 -6.6875 C 10.726562 -5.945312 9.925781 -5.453125 8.90625 -5.203125 L 12.421875 0 L 10.296875 0 L 6.875 -5.015625 L 3.796875 -5.015625 L 3.796875 0 Z M 3.796875 -6.703125 L 7.1875 -6.703125 C 8.207031 -6.703125 9 -6.941406 9.5625 -7.421875 C 10.125 -7.910156 10.40625 -8.601562 10.40625 -9.5 C 10.40625 -10.394531 10.125 -11.085938 9.5625 -11.578125 C 9 -12.066406 8.207031 -12.3125 7.1875 -12.3125 L 3.796875 -12.3125 Z M 3.796875 -6.703125 "/></g></g></g><g fill="#0098da" fill-opacity="1"><g transform="translate(187.704846, 289.325928)"><g/></g></g><g fill="#0098da" fill-opacity="1"><g transform="translate(191.762892, 289.325928)"><g><path d="M 2.046875 0 L 2.046875 -14 L 7.375 -14 C 8.351562 -14 9.203125 -13.816406 9.921875 -13.453125 C 10.640625 -13.085938 11.195312 -12.570312 11.59375 -11.90625 C 12 -11.238281 12.203125 -10.4375 12.203125 -9.5 C 12.203125 -8.363281 11.90625 -7.425781 11.3125 -6.6875 C 10.726562 -5.945312 9.925781 -5.453125 8.90625 -5.203125 L 12.421875 0 L 10.296875 0 L 6.875 -5.015625 L 3.796875 -5.015625 L 3.796875 0 Z M 3.796875 -6.703125 L 7.1875 -6.703125 C 8.207031 -6.703125 9 -6.941406 9.5625 -7.421875 C 10.125 -7.910156 10.40625 -8.601562 10.40625 -9.5 C 10.40625 -10.394531 10.125 -11.085938 9.5625 -11.578125 C 9 -12.066406 8.207031 -12.3125 7.1875 -12.3125 L 3.796875 -12.3125 Z M 3.796875 -6.703125 "/></g></g></g><g fill="#0098da" fill-opacity="1"><g transform="translate(204.477511, 289.325928)"><g><path d="M 2.046875 0 L 2.046875 -14 L 10.546875 -14 L 10.546875 -12.359375 L 3.796875 -12.359375 L 3.796875 -7.9375 L 10.046875 -7.9375 L 10.046875 -6.3125 L 3.796875 -6.3125 L 3.796875 -1.640625 L 10.765625 -1.640625 L 10.765625 0 Z M 2.046875 0 "/></g></g></g><g fill="#0098da" fill-opacity="1"><g transform="translate(215.632754, 289.325928)"><g><path d="M 2.046875 0 L 2.046875 -14 L 10.0625 -14 L 10.0625 -12.359375 L 3.796875 -12.359375 L 3.796875 -7.515625 L 9.546875 -7.515625 L 9.546875 -5.90625 L 3.796875 -5.90625 L 3.796875 0 Z M 2.046875 0 "/></g></g></g><g fill="#0098da" fill-opacity="1"><g transform="translate(225.888353, 289.325928)"><g><path d="M 2.046875 0 L 2.046875 -14 L 3.796875 -14 L 3.796875 0 Z M 2.046875 0 "/></g></g></g><g fill="#0098da" fill-opacity="1"><g transform="translate(230.826055, 289.325928)"><g><path d="M 2.046875 0 L 2.046875 -14 L 3.796875 -14 L 3.796875 -1.6875 L 10.59375 -1.6875 L 10.59375 0 Z M 2.046875 0 "/></g></g></g><g fill="#0098da" fill-opacity="1"><g transform="translate(241.141633, 289.325928)"><g><path d="M 2.046875 0 L 2.046875 -14 L 3.796875 -14 L 3.796875 -1.6875 L 10.59375 -1.6875 L 10.59375 0 Z M 2.046875 0 "/></g></g></g><g fill="#0098da" fill-opacity="1"><g transform="translate(251.46796, 289.325928)"><g/></g></g><g fill="#0d62ad" fill-opacity="1"><g transform="translate(85.956781, 264.541331)"><g><path d="M 13.65625 -4.46875 C 14.332031 -4.46875 15.0625 -4.570312 15.84375 -4.78125 C 16.632812 -5 17.316406 -5.351562 17.890625 -5.84375 C 18.472656 -6.332031 18.765625 -7 18.765625 -7.84375 C 18.765625 -8.632812 18.460938 -9.265625 17.859375 -9.734375 C 17.253906 -10.210938 16.457031 -10.609375 15.46875 -10.921875 C 14.488281 -11.234375 13.414062 -11.519531 12.25 -11.78125 C 11.082031 -12.050781 9.90625 -12.375 8.71875 -12.75 C 7.539062 -13.132812 6.457031 -13.632812 5.46875 -14.25 C 4.488281 -14.875 3.695312 -15.675781 3.09375 -16.65625 C 2.488281 -17.644531 2.1875 -18.894531 2.1875 -20.40625 C 2.1875 -21.894531 2.492188 -23.179688 3.109375 -24.265625 C 3.734375 -25.347656 4.554688 -26.25 5.578125 -26.96875 C 6.609375 -27.6875 7.765625 -28.21875 9.046875 -28.5625 C 10.328125 -28.914062 11.613281 -29.09375 12.90625 -29.09375 C 14.875 -29.09375 16.710938 -28.785156 18.421875 -28.171875 C 20.140625 -27.554688 21.539062 -26.578125 22.625 -25.234375 C 23.707031 -23.898438 24.273438 -22.140625 24.328125 -19.953125 L 18.21875 -19.953125 C 18.050781 -21.441406 17.53125 -22.472656 16.65625 -23.046875 C 15.78125 -23.617188 14.554688 -23.90625 12.984375 -23.90625 C 12.398438 -23.90625 11.773438 -23.804688 11.109375 -23.609375 C 10.453125 -23.421875 9.890625 -23.109375 9.421875 -22.671875 C 8.960938 -22.234375 8.734375 -21.648438 8.734375 -20.921875 C 8.734375 -20.191406 9.035156 -19.613281 9.640625 -19.1875 C 10.242188 -18.769531 11.035156 -18.421875 12.015625 -18.140625 C 13.003906 -17.859375 14.085938 -17.585938 15.265625 -17.328125 C 16.441406 -17.078125 17.613281 -16.769531 18.78125 -16.40625 C 19.945312 -16.039062 21.019531 -15.539062 22 -14.90625 C 22.988281 -14.269531 23.785156 -13.445312 24.390625 -12.4375 C 24.992188 -11.425781 25.296875 -10.132812 25.296875 -8.5625 C 25.296875 -6.875 24.957031 -5.4375 24.28125 -4.25 C 23.613281 -3.070312 22.707031 -2.125 21.5625 -1.40625 C 20.425781 -0.695312 19.148438 -0.175781 17.734375 0.15625 C 16.316406 0.5 14.875 0.671875 13.40625 0.671875 C 11.300781 0.671875 9.328125 0.316406 7.484375 -0.390625 C 5.640625 -1.109375 4.148438 -2.210938 3.015625 -3.703125 C 1.878906 -5.203125 1.296875 -7.117188 1.265625 -9.453125 L 7.671875 -9.453125 C 7.753906 -7.734375 8.382812 -6.472656 9.5625 -5.671875 C 10.75 -4.867188 12.113281 -4.46875 13.65625 -4.46875 Z M 13.65625 -4.46875 "/></g></g></g><g fill="#0d62ad" fill-opacity="1"><g transform="translate(114.207189, 264.541331)"><g><path d="M 8.859375 0 L 2.53125 0 L 2.53125 -28.671875 L 8.859375 -28.671875 Z M 8.859375 0 "/></g></g></g><g fill="#0d62ad" fill-opacity="1"><g transform="translate(127.27851, 264.541331)"><g><path d="M 2.53125 0 L 2.53125 -28.671875 L 8.859375 -28.671875 L 8.859375 -5.734375 L 19.140625 -5.734375 L 19.140625 0 Z M 2.53125 0 "/></g></g></g><g fill="#0d62ad" fill-opacity="1"><g transform="translate(149.583781, 264.541331)"><g><path d="M 24.671875 -14.375 C 24.671875 -15.863281 24.273438 -17.25 23.484375 -18.53125 C 22.703125 -19.8125 21.671875 -20.84375 20.390625 -21.625 C 19.109375 -22.414062 17.722656 -22.8125 16.234375 -22.8125 C 14.773438 -22.8125 13.394531 -22.414062 12.09375 -21.625 C 10.800781 -20.84375 9.757812 -19.8125 8.96875 -18.53125 C 8.1875 -17.25 7.796875 -15.863281 7.796875 -14.375 C 7.796875 -12.914062 8.1875 -11.539062 8.96875 -10.25 C 9.757812 -8.957031 10.800781 -7.910156 12.09375 -7.109375 C 13.394531 -6.304688 14.773438 -5.90625 16.234375 -5.90625 C 17.722656 -5.90625 19.109375 -6.304688 20.390625 -7.109375 C 21.671875 -7.910156 22.703125 -8.957031 23.484375 -10.25 C 24.273438 -11.539062 24.671875 -12.914062 24.671875 -14.375 Z M 31 -14.34375 C 31 -12.375 30.601562 -10.492188 29.8125 -8.703125 C 29.03125 -6.921875 27.957031 -5.347656 26.59375 -3.984375 C 25.226562 -2.617188 23.660156 -1.539062 21.890625 -0.75 C 20.117188 0.03125 18.234375 0.421875 16.234375 0.421875 C 14.265625 0.421875 12.382812 0.03125 10.59375 -0.75 C 8.8125 -1.539062 7.238281 -2.617188 5.875 -3.984375 C 4.519531 -5.347656 3.445312 -6.921875 2.65625 -8.703125 C 1.863281 -10.492188 1.46875 -12.375 1.46875 -14.34375 C 1.46875 -16.332031 1.863281 -18.210938 2.65625 -19.984375 C 3.445312 -21.753906 4.519531 -23.320312 5.875 -24.6875 C 7.238281 -26.050781 8.8125 -27.125 10.59375 -27.90625 C 12.382812 -28.695312 14.265625 -29.09375 16.234375 -29.09375 C 18.234375 -29.09375 20.117188 -28.695312 21.890625 -27.90625 C 23.660156 -27.125 25.226562 -26.050781 26.59375 -24.6875 C 27.957031 -23.320312 29.03125 -21.753906 29.8125 -19.984375 C 30.601562 -18.210938 31 -16.332031 31 -14.34375 Z M 31 -14.34375 "/></g></g></g><g fill="#0d62ad" fill-opacity="1"><g transform="translate(183.737178, 264.541331)"><g><path d="M 18.140625 -10.96875 L 14.5 -21.171875 L 10.875 -10.96875 Z M 28.84375 0 L 22.0625 0 L 19.984375 -5.78125 L 9.0625 -5.78125 L 7 0 L 0.203125 0 L 11.84375 -28.671875 L 17.203125 -28.671875 Z M 28.84375 0 "/></g></g></g><g fill="#0d62ad" fill-opacity="1"><g transform="translate(214.475274, 264.541331)"><g><path d="M 25.046875 0 L 18.71875 0 L 8.859375 -17.875 L 8.859375 0 L 2.53125 0 L 2.53125 -28.671875 L 8.859375 -28.671875 L 18.71875 -10.796875 L 18.71875 -28.671875 L 25.046875 -28.671875 Z M 25.046875 0 "/></g></g></g><g fill="#0d62ad" fill-opacity="1"><g transform="translate(243.737631, 264.541331)"><g><path d="M 16.875 -23.1875 C 15.351562 -23.1875 13.957031 -22.78125 12.6875 -21.96875 C 11.425781 -21.15625 10.414062 -20.070312 9.65625 -18.71875 C 8.894531 -17.375 8.515625 -15.882812 8.515625 -14.25 C 8.515625 -12.644531 8.894531 -11.160156 9.65625 -9.796875 C 10.414062 -8.441406 11.425781 -7.351562 12.6875 -6.53125 C 13.957031 -5.71875 15.351562 -5.3125 16.875 -5.3125 C 17.800781 -5.3125 18.773438 -5.441406 19.796875 -5.703125 C 20.828125 -5.972656 21.785156 -6.488281 22.671875 -7.25 C 23.554688 -8.007812 24.25 -9.109375 24.75 -10.546875 L 17.453125 -10.546875 L 17.453125 -15.3125 L 31.59375 -15.3125 L 31.59375 -14.34375 C 31.59375 -12.3125 31.210938 -10.40625 30.453125 -8.625 C 29.691406 -6.84375 28.632812 -5.269531 27.28125 -3.90625 C 25.9375 -2.539062 24.378906 -1.476562 22.609375 -0.71875 C 20.835938 0.0390625 18.925781 0.421875 16.875 0.421875 C 14.84375 0.421875 12.9375 0.0351562 11.15625 -0.734375 C 9.375 -1.503906 7.804688 -2.566406 6.453125 -3.921875 C 5.097656 -5.273438 4.035156 -6.84375 3.265625 -8.625 C 2.492188 -10.40625 2.109375 -12.3125 2.109375 -14.34375 C 2.109375 -16.363281 2.492188 -18.265625 3.265625 -20.046875 C 4.035156 -21.835938 5.097656 -23.40625 6.453125 -24.75 C 7.804688 -26.101562 9.375 -27.164062 11.15625 -27.9375 C 12.9375 -28.707031 14.84375 -29.09375 16.875 -29.09375 C 18.976562 -29.09375 20.972656 -28.664062 22.859375 -27.8125 C 24.742188 -26.957031 26.390625 -25.773438 27.796875 -24.265625 C 29.203125 -22.765625 30.226562 -21.015625 30.875 -19.015625 L 23.90625 -19.015625 C 23.207031 -20.535156 22.210938 -21.609375 20.921875 -22.234375 C 19.628906 -22.867188 18.28125 -23.1875 16.875 -23.1875 Z M 16.875 -23.1875 "/></g></g></g><g fill="#0d62ad" fill-opacity="1"><g transform="translate(278.484112, 264.541331)"><g/></g></g></svg>